<svg width="554" height="268" viewBox="0 0 554 268" fill="none" xmlns="http://www.w3.org/2000/svg">
<g filter="url(#filter0_bdiiiii_538_3274)">
<rect x="53" y="51" width="463" height="175" rx="4.47244" fill="white" fill-opacity="0.08" shape-rendering="crispEdges"/>
</g>
<path d="M145.7 134.681C145.657 133.612 145.826 132.546 146.197 131.542C146.567 130.539 147.133 129.62 147.862 128.837C148.59 128.053 149.466 127.422 150.439 126.979C151.413 126.536 152.464 126.291 153.533 126.256H153.865C157.996 126.256 160.435 128.686 161.155 131.53L158.588 132.388C158.357 131.329 157.753 130.387 156.886 129.736C156.019 129.085 154.947 128.767 153.865 128.84C151.192 128.84 148.511 130.792 148.511 134.729C148.511 138.666 151.127 140.545 153.898 140.545C154.985 140.575 156.051 140.239 156.924 139.591C157.798 138.944 158.429 138.022 158.717 136.973L161.236 137.783C160.802 139.383 159.834 140.787 158.494 141.763C157.154 142.74 155.521 143.23 153.865 143.153C151.738 143.193 149.681 142.385 148.149 140.909C146.616 139.432 145.733 137.408 145.692 135.28C145.684 135.086 145.692 134.883 145.7 134.681Z" fill="#375BD2"/>
<path d="M166.234 142.781H163.577V126.208H166.234V132.688C166.62 132.231 167.105 131.867 167.653 131.626C168.2 131.384 168.795 131.271 169.393 131.295C172.139 131.295 173.444 133.263 173.444 135.718V142.781H170.884V136.188C170.961 135.625 170.813 135.056 170.474 134.601C170.134 134.147 169.63 133.844 169.069 133.757C168.91 133.741 168.75 133.741 168.591 133.757C167.977 133.757 167.388 134.002 166.953 134.436C166.519 134.87 166.275 135.46 166.275 136.074C166.271 136.142 166.271 136.209 166.275 136.277L166.234 142.781Z" fill="#375BD2"/>
<path d="M179.405 136.398L182.257 135.952C182.905 135.871 183.067 135.539 183.067 135.142C183.067 134.203 182.435 133.449 180.961 133.449C180.404 133.404 179.852 133.581 179.424 133.94C178.997 134.299 178.728 134.813 178.676 135.369V135.491L176.246 134.948C176.449 133.02 178.198 131.303 180.936 131.303C184.371 131.303 185.675 133.247 185.675 135.515V141.047C185.672 141.647 185.718 142.246 185.813 142.838H183.383C183.295 142.368 183.26 141.89 183.277 141.412C182.908 141.98 182.397 142.441 181.795 142.749C181.192 143.057 180.519 143.202 179.843 143.17C178.919 143.246 178.003 142.953 177.296 142.354C176.588 141.756 176.146 140.901 176.068 139.978C176.068 139.921 176.068 139.865 176.068 139.816C176.028 137.767 177.494 136.665 179.405 136.398ZM183.083 138.188V137.678L180.175 138.115C179.78 138.128 179.405 138.292 179.129 138.574C178.853 138.857 178.697 139.235 178.693 139.63C178.696 139.826 178.738 140.019 178.816 140.198C178.895 140.377 179.008 140.539 179.15 140.674C179.292 140.809 179.459 140.914 179.642 140.984C179.825 141.054 180.02 141.086 180.215 141.08H180.337C180.668 141.114 181.004 141.083 181.323 140.988C181.643 140.892 181.94 140.735 182.198 140.524C182.456 140.313 182.67 140.053 182.828 139.759C182.985 139.466 183.083 139.143 183.115 138.812C183.127 138.603 183.113 138.393 183.075 138.188H183.083Z" fill="#375BD2"/>
<path d="M190.195 125.981C190.423 125.978 190.65 126.02 190.862 126.104C191.074 126.189 191.267 126.315 191.431 126.474C191.594 126.634 191.724 126.824 191.814 127.034C191.903 127.244 191.951 127.47 191.953 127.698C191.953 128.04 191.852 128.374 191.662 128.659C191.473 128.943 191.203 129.165 190.888 129.297C190.573 129.429 190.225 129.465 189.89 129.4C189.554 129.335 189.245 129.172 189.002 128.932C188.759 128.692 188.592 128.386 188.522 128.051C188.452 127.716 188.483 127.369 188.611 127.052C188.738 126.734 188.957 126.462 189.239 126.269C189.52 126.075 189.853 125.97 190.195 125.965V125.981ZM188.899 142.83V131.635H191.556V142.781L188.899 142.83Z" fill="#375BD2"/>
<path d="M197.607 142.781H194.958V131.635H197.542V133.118C197.879 132.548 198.363 132.08 198.943 131.762C199.523 131.445 200.178 131.289 200.839 131.311C203.56 131.311 204.889 133.28 204.889 135.734V142.781H202.24V136.188C202.24 134.819 201.616 133.709 199.948 133.709C199.639 133.711 199.334 133.774 199.05 133.894C198.766 134.014 198.508 134.189 198.291 134.408C198.075 134.628 197.903 134.888 197.787 135.174C197.671 135.46 197.613 135.766 197.615 136.074C197.615 136.163 197.615 136.252 197.615 136.341L197.607 142.781Z" fill="#375BD2"/>
<path d="M208.096 142.781V126.208H210.753V142.781H208.096Z" fill="#375BD2"/>
<path d="M215.492 125.981C215.834 125.979 216.169 126.079 216.454 126.268C216.739 126.457 216.961 126.727 217.093 127.042C217.224 127.358 217.259 127.705 217.193 128.041C217.126 128.376 216.962 128.685 216.72 128.926C216.478 129.168 216.17 129.333 215.835 129.399C215.499 129.465 215.152 129.43 214.836 129.299C214.521 129.167 214.251 128.945 214.062 128.66C213.873 128.375 213.773 128.04 213.775 127.698C213.779 127.244 213.961 126.81 214.282 126.489C214.604 126.167 215.038 125.985 215.492 125.981ZM214.188 142.83V131.635H216.821V142.781L214.188 142.83Z" fill="#375BD2"/>
<path d="M222.912 142.781H220.255V131.635H222.839V133.117C223.176 132.549 223.66 132.081 224.24 131.763C224.82 131.446 225.475 131.289 226.136 131.311C228.857 131.311 230.186 133.279 230.186 135.734V142.781H227.529V136.187C227.606 135.625 227.458 135.056 227.119 134.601C226.78 134.146 226.275 133.843 225.714 133.757C225.553 133.741 225.39 133.741 225.228 133.757C224.61 133.764 224.018 134.014 223.583 134.454C223.148 134.894 222.904 135.488 222.904 136.106C222.895 136.201 222.895 136.296 222.904 136.39L222.912 142.781Z" fill="#375BD2"/>
<path d="M239.25 136.341L243.924 142.822H240.684L237.444 138.229L236.075 139.671V142.781H233.442V126.208H236.075V136.139L240.352 131.635H243.875L239.25 136.341Z" fill="#375BD2"/>
<path d="M114.247 121.72L125.733 128.314V141.566L114.279 148.2L102.801 141.623V128.379L114.247 121.72ZM114.247 112L110.035 114.43L98.5648 121.088L94.3527 123.519V146.499L98.5648 148.929L110.051 155.523L114.263 157.953L118.475 155.523L129.921 148.88L134.133 146.45V123.438L129.921 121.007L118.443 114.43L114.231 112H114.247Z" fill="#375BD2"/>
<path d="M292.809 124.583H296.916L309.234 143.869V124.583H312.736V148.816H308.597L296.308 129.53V148.816H292.809V124.583Z" fill="#2D2A29"/>
<path d="M317.176 124.583H320.71V148.816H317.176V124.583Z" fill="#2D2A29"/>
<path d="M359.015 124.583H362.784L370.156 145.08L377.527 124.583H381.296L372.141 148.816H368.17L359.015 124.583Z" fill="#2D2A29"/>
<path d="M386.627 124.583H390.161V145.584H402.144V148.816H386.63V124.583H386.627Z" fill="#2D2A29"/>
<path d="M413.011 124.583H417.017L426.745 148.816H422.941L420.483 142.421H409.545L407.055 148.816H403.319L413.011 124.583ZM419.273 139.29L415 128.15L410.726 139.29H419.276H419.273Z" fill="#2D2A29"/>
<path d="M429.469 124.583H438.725C441.53 124.583 443.656 125.185 445.104 126.383C446.552 127.584 447.275 129.159 447.275 131.112C447.275 132.234 447.034 133.22 446.552 134.073C446.07 134.926 445.345 135.609 444.381 136.127C445.683 136.644 446.659 137.396 447.31 138.382C447.961 139.368 448.287 140.537 448.287 141.884C448.287 144.016 447.567 145.705 446.132 146.948C444.697 148.194 442.565 148.816 439.737 148.816H429.472V124.583H429.469ZM442.578 133.956C443.376 133.318 443.773 132.436 443.773 131.313C443.773 130.191 443.376 129.276 442.578 128.638C441.781 128 440.554 127.678 438.894 127.678H433.004V134.913H438.894C440.554 134.913 441.784 134.594 442.578 133.953V133.956ZM443.486 144.725C444.284 144.065 444.681 143.104 444.681 141.848C444.681 140.592 444.284 139.632 443.486 138.971C442.689 138.311 441.462 137.979 439.802 137.979H433.004V145.721H439.802C441.462 145.721 442.692 145.389 443.486 144.728V144.725Z" fill="#2D2A29"/>
<path d="M455.134 148.279C453.64 147.651 452.452 146.704 451.567 145.435C450.682 144.169 450.217 142.581 450.171 140.674H453.774C453.842 142.626 454.48 144.022 455.691 144.865C456.901 145.708 458.46 146.128 460.371 146.128C462.053 146.128 463.401 145.786 464.41 145.103C465.418 144.419 465.923 143.427 465.923 142.125C465.923 141.406 465.75 140.813 465.402 140.342C465.054 139.87 464.416 139.443 463.485 139.063C462.554 138.682 461.191 138.311 459.394 137.953C457.419 137.549 455.827 137.061 454.617 136.488C453.406 135.915 452.491 135.16 451.873 134.217C451.255 133.273 450.949 132.085 450.949 130.65C450.949 129.371 451.313 128.245 452.042 127.268C452.771 126.292 453.777 125.534 455.056 124.997C456.335 124.46 457.793 124.189 459.43 124.189C462.616 124.189 465.005 124.925 466.6 126.393C468.191 127.864 469.024 129.797 469.089 132.199H465.523C465.431 130.539 464.901 129.306 463.925 128.495C462.948 127.688 461.451 127.284 459.43 127.284C457.972 127.284 456.8 127.581 455.912 128.176C455.027 128.772 454.584 129.585 454.584 130.617C454.584 131.379 454.734 131.997 455.04 132.469C455.346 132.941 455.932 133.367 456.807 133.748C457.682 134.129 458.994 134.49 460.745 134.825C463.078 135.274 464.885 135.831 466.164 136.492C467.443 137.152 468.334 137.927 468.839 138.815C469.343 139.7 469.597 140.784 469.597 142.063C469.597 143.521 469.21 144.791 468.435 145.868C467.661 146.945 466.574 147.775 465.171 148.357C463.768 148.94 462.148 149.233 460.309 149.233C458.356 149.233 456.634 148.917 455.144 148.289L455.134 148.279Z" fill="#2D2A29"/>
<path d="M357.486 125.159L353.294 125.833C349.974 126.367 346.844 127.737 344.198 129.813L323.161 146.32C322.894 146.528 323.151 146.945 323.457 146.802L347.641 135.398C350.684 133.963 353.31 131.779 355.276 129.052L357.756 125.608C357.902 125.403 357.73 125.12 357.479 125.162L357.486 125.159Z" fill="#2D2A29"/>
<path d="M351.995 133.995C350.794 134.929 349.489 135.733 348.11 136.381L347.273 136.774C347.315 137.119 347.335 137.474 347.335 137.832C347.335 142.864 343.254 146.942 338.222 146.942C335.638 146.942 333.308 145.868 331.655 144.139L330.516 144.676C332.791 147.218 336.1 148.816 339.781 148.816C346.651 148.816 352.226 143.244 352.226 136.374C352.226 135.561 352.148 134.763 351.999 133.995H351.995Z" fill="#2D2A29"/>
<path d="M346.254 127.144C345.988 127.291 345.724 127.45 345.464 127.607C344.022 126.65 342.297 126.093 340.435 126.093C335.404 126.093 331.326 130.171 331.326 135.203C331.326 136.234 331.498 137.227 331.814 138.148L327.193 141.773C326.584 140.309 326.252 138.704 326.252 137.022C326.252 130.148 331.824 124.577 338.697 124.577C341.542 124.577 344.162 125.53 346.258 127.138L346.254 127.144Z" fill="#2D2A29"/>
<path d="M470.473 124.179H470.574L471.459 126.308H471.351L471.081 125.65H469.965L469.695 126.308H469.587L470.473 124.179ZM471.045 125.562L470.521 124.287L469.997 125.562H471.045Z" fill="#2D2A29"/>
<path d="M471.7 124.179H472.516C472.728 124.179 472.887 124.228 473.001 124.326C473.112 124.423 473.167 124.553 473.167 124.713C473.167 124.83 473.138 124.931 473.076 125.016C473.014 125.1 472.927 125.162 472.806 125.195C472.949 125.227 473.057 125.292 473.135 125.387C473.213 125.481 473.249 125.595 473.249 125.735C473.249 125.911 473.19 126.051 473.07 126.155C472.949 126.259 472.783 126.311 472.569 126.311H471.7V124.179ZM472.93 125.038C473.024 124.957 473.073 124.85 473.073 124.716C473.073 124.583 473.024 124.475 472.93 124.394C472.835 124.313 472.699 124.27 472.52 124.27H471.794V125.162H472.52C472.699 125.162 472.835 125.12 472.93 125.038ZM472.998 126.09C473.099 126.002 473.151 125.885 473.151 125.735C473.151 125.585 473.099 125.468 472.998 125.38C472.894 125.292 472.754 125.25 472.569 125.25H471.794V126.22H472.569C472.751 126.22 472.894 126.177 472.998 126.09Z" fill="#2D2A29"/>
<path d="M474.183 124.267H473.395V124.179H475.065V124.267H474.277V126.308H474.179V124.267H474.183Z" fill="#2D2A29"/>
<path d="M268.508 112L268.508 155.741" stroke="black" stroke-width="0.810026"/>
<g filter="url(#filter1_bdiiiii_538_3274)">
<circle cx="62.874" cy="59.874" r="50.874" fill="white" fill-opacity="0.08" shape-rendering="crispEdges"/>
</g>
<g filter="url(#filter2_bdiiiii_538_3274)">
<circle cx="507.661" cy="219.205" r="34.6614" fill="white" fill-opacity="0.08" shape-rendering="crispEdges"/>
</g>
<defs>
<filter id="filter0_bdiiiii_538_3274" x="30.6378" y="28.6378" width="507.724" height="219.724" filterUnits="userSpaceOnUse" color-interpolation-filters="sRGB">
<feFlood flood-opacity="0" result="BackgroundImageFix"/>
<feGaussianBlur in="BackgroundImageFix" stdDeviation="11.1811"/>
<feComposite in2="SourceAlpha" operator="in" result="effect1_backgroundBlur_538_3274"/>
<feColorMatrix in="SourceAlpha" type="matrix" values="0 0 0 0 0 0 0 0 0 0 0 0 0 0 0 0 0 0 127 0" result="hardAlpha"/>
<feOffset dy="2.23622"/>
<feGaussianBlur stdDeviation="5.59055"/>
<feComposite in2="hardAlpha" operator="out"/>
<feColorMatrix type="matrix" values="0 0 0 0 0 0 0 0 0 0 0 0 0 0 0 0 0 0 0.2 0"/>
<feBlend mode="normal" in2="effect1_backgroundBlur_538_3274" result="effect2_dropShadow_538_3274"/>
<feBlend mode="normal" in="SourceGraphic" in2="effect2_dropShadow_538_3274" result="shape"/>
<feColorMatrix in="SourceAlpha" type="matrix" values="0 0 0 0 0 0 0 0 0 0 0 0 0 0 0 0 0 0 127 0" result="hardAlpha"/>
<feOffset dy="2.23622"/>
<feGaussianBlur stdDeviation="3.35433"/>
<feComposite in2="hardAlpha" operator="arithmetic" k2="-1" k3="1"/>
<feColorMatrix type="matrix" values="0 0 0 0 1 0 0 0 0 1 0 0 0 0 1 0 0 0 0.4 0"/>
<feBlend mode="normal" in2="shape" result="effect3_innerShadow_538_3274"/>
<feColorMatrix in="SourceAlpha" type="matrix" values="0 0 0 0 0 0 0 0 0 0 0 0 0 0 0 0 0 0 127 0" result="hardAlpha"/>
<feOffset dy="-22.3622"/>
<feGaussianBlur stdDeviation="11.1811"/>
<feComposite in2="hardAlpha" operator="arithmetic" k2="-1" k3="1"/>
<feColorMatrix type="matrix" values="0 0 0 0 0.706667 0 0 0 0 0.706667 0 0 0 0 0.706667 0 0 0 0.2 0"/>
<feBlend mode="normal" in2="effect3_innerShadow_538_3274" result="effect4_innerShadow_538_3274"/>
<feColorMatrix in="SourceAlpha" type="matrix" values="0 0 0 0 0 0 0 0 0 0 0 0 0 0 0 0 0 0 127 0" result="hardAlpha"/>
<feOffset dy="-2.23622"/>
<feGaussianBlur stdDeviation="1.11811"/>
<feComposite in2="hardAlpha" operator="arithmetic" k2="-1" k3="1"/>
<feColorMatrix type="matrix" values="0 0 0 0 1 0 0 0 0 0.9725 0 0 0 0 0.9725 0 0 0 0.2 0"/>
<feBlend mode="normal" in2="effect4_innerShadow_538_3274" result="effect5_innerShadow_538_3274"/>
<feColorMatrix in="SourceAlpha" type="matrix" values="0 0 0 0 0 0 0 0 0 0 0 0 0 0 0 0 0 0 127 0" result="hardAlpha"/>
<feOffset dy="11.1811"/>
<feGaussianBlur stdDeviation="11.1811"/>
<feComposite in2="hardAlpha" operator="arithmetic" k2="-1" k3="1"/>
<feColorMatrix type="matrix" values="0 0 0 0 1 0 0 0 0 1 0 0 0 0 1 0 0 0 0.25 0"/>
<feBlend mode="normal" in2="effect5_innerShadow_538_3274" result="effect6_innerShadow_538_3274"/>
<feColorMatrix in="SourceAlpha" type="matrix" values="0 0 0 0 0 0 0 0 0 0 0 0 0 0 0 0 0 0 127 0" result="hardAlpha"/>
<feOffset dy="0.559055"/>
<feGaussianBlur stdDeviation="0.559055"/>
<feComposite in2="hardAlpha" operator="arithmetic" k2="-1" k3="1"/>
<feColorMatrix type="matrix" values="0 0 0 0 1 0 0 0 0 1 0 0 0 0 1 0 0 0 0.8 0"/>
<feBlend mode="normal" in2="effect6_innerShadow_538_3274" result="effect7_innerShadow_538_3274"/>
</filter>
<filter id="filter1_bdiiiii_538_3274" x="-10.3622" y="-13.3622" width="146.472" height="146.472" filterUnits="userSpaceOnUse" color-interpolation-filters="sRGB">
<feFlood flood-opacity="0" result="BackgroundImageFix"/>
<feGaussianBlur in="BackgroundImageFix" stdDeviation="11.1811"/>
<feComposite in2="SourceAlpha" operator="in" result="effect1_backgroundBlur_538_3274"/>
<feColorMatrix in="SourceAlpha" type="matrix" values="0 0 0 0 0 0 0 0 0 0 0 0 0 0 0 0 0 0 127 0" result="hardAlpha"/>
<feOffset dy="2.23622"/>
<feGaussianBlur stdDeviation="5.59055"/>
<feComposite in2="hardAlpha" operator="out"/>
<feColorMatrix type="matrix" values="0 0 0 0 0 0 0 0 0 0 0 0 0 0 0 0 0 0 0.2 0"/>
<feBlend mode="normal" in2="effect1_backgroundBlur_538_3274" result="effect2_dropShadow_538_3274"/>
<feBlend mode="normal" in="SourceGraphic" in2="effect2_dropShadow_538_3274" result="shape"/>
<feColorMatrix in="SourceAlpha" type="matrix" values="0 0 0 0 0 0 0 0 0 0 0 0 0 0 0 0 0 0 127 0" result="hardAlpha"/>
<feOffset dy="2.23622"/>
<feGaussianBlur stdDeviation="3.35433"/>
<feComposite in2="hardAlpha" operator="arithmetic" k2="-1" k3="1"/>
<feColorMatrix type="matrix" values="0 0 0 0 1 0 0 0 0 1 0 0 0 0 1 0 0 0 0.4 0"/>
<feBlend mode="normal" in2="shape" result="effect3_innerShadow_538_3274"/>
<feColorMatrix in="SourceAlpha" type="matrix" values="0 0 0 0 0 0 0 0 0 0 0 0 0 0 0 0 0 0 127 0" result="hardAlpha"/>
<feOffset dy="-22.3622"/>
<feGaussianBlur stdDeviation="11.1811"/>
<feComposite in2="hardAlpha" operator="arithmetic" k2="-1" k3="1"/>
<feColorMatrix type="matrix" values="0 0 0 0 0.706667 0 0 0 0 0.706667 0 0 0 0 0.706667 0 0 0 0.2 0"/>
<feBlend mode="normal" in2="effect3_innerShadow_538_3274" result="effect4_innerShadow_538_3274"/>
<feColorMatrix in="SourceAlpha" type="matrix" values="0 0 0 0 0 0 0 0 0 0 0 0 0 0 0 0 0 0 127 0" result="hardAlpha"/>
<feOffset dy="-2.23622"/>
<feGaussianBlur stdDeviation="1.11811"/>
<feComposite in2="hardAlpha" operator="arithmetic" k2="-1" k3="1"/>
<feColorMatrix type="matrix" values="0 0 0 0 1 0 0 0 0 0.9725 0 0 0 0 0.9725 0 0 0 0.2 0"/>
<feBlend mode="normal" in2="effect4_innerShadow_538_3274" result="effect5_innerShadow_538_3274"/>
<feColorMatrix in="SourceAlpha" type="matrix" values="0 0 0 0 0 0 0 0 0 0 0 0 0 0 0 0 0 0 127 0" result="hardAlpha"/>
<feOffset dy="11.1811"/>
<feGaussianBlur stdDeviation="11.1811"/>
<feComposite in2="hardAlpha" operator="arithmetic" k2="-1" k3="1"/>
<feColorMatrix type="matrix" values="0 0 0 0 1 0 0 0 0 1 0 0 0 0 1 0 0 0 0.25 0"/>
<feBlend mode="normal" in2="effect5_innerShadow_538_3274" result="effect6_innerShadow_538_3274"/>
<feColorMatrix in="SourceAlpha" type="matrix" values="0 0 0 0 0 0 0 0 0 0 0 0 0 0 0 0 0 0 127 0" result="hardAlpha"/>
<feOffset dy="0.559055"/>
<feGaussianBlur stdDeviation="0.559055"/>
<feComposite in2="hardAlpha" operator="arithmetic" k2="-1" k3="1"/>
<feColorMatrix type="matrix" values="0 0 0 0 1 0 0 0 0 1 0 0 0 0 1 0 0 0 0.8 0"/>
<feBlend mode="normal" in2="effect6_innerShadow_538_3274" result="effect7_innerShadow_538_3274"/>
</filter>
<filter id="filter2_bdiiiii_538_3274" x="450.638" y="162.181" width="114.047" height="114.047" filterUnits="userSpaceOnUse" color-interpolation-filters="sRGB">
<feFlood flood-opacity="0" result="BackgroundImageFix"/>
<feGaussianBlur in="BackgroundImageFix" stdDeviation="11.1811"/>
<feComposite in2="SourceAlpha" operator="in" result="effect1_backgroundBlur_538_3274"/>
<feColorMatrix in="SourceAlpha" type="matrix" values="0 0 0 0 0 0 0 0 0 0 0 0 0 0 0 0 0 0 127 0" result="hardAlpha"/>
<feOffset dy="2.23622"/>
<feGaussianBlur stdDeviation="5.59055"/>
<feComposite in2="hardAlpha" operator="out"/>
<feColorMatrix type="matrix" values="0 0 0 0 0 0 0 0 0 0 0 0 0 0 0 0 0 0 0.2 0"/>
<feBlend mode="normal" in2="effect1_backgroundBlur_538_3274" result="effect2_dropShadow_538_3274"/>
<feBlend mode="normal" in="SourceGraphic" in2="effect2_dropShadow_538_3274" result="shape"/>
<feColorMatrix in="SourceAlpha" type="matrix" values="0 0 0 0 0 0 0 0 0 0 0 0 0 0 0 0 0 0 127 0" result="hardAlpha"/>
<feOffset dy="2.23622"/>
<feGaussianBlur stdDeviation="3.35433"/>
<feComposite in2="hardAlpha" operator="arithmetic" k2="-1" k3="1"/>
<feColorMatrix type="matrix" values="0 0 0 0 1 0 0 0 0 1 0 0 0 0 1 0 0 0 0.4 0"/>
<feBlend mode="normal" in2="shape" result="effect3_innerShadow_538_3274"/>
<feColorMatrix in="SourceAlpha" type="matrix" values="0 0 0 0 0 0 0 0 0 0 0 0 0 0 0 0 0 0 127 0" result="hardAlpha"/>
<feOffset dy="-22.3622"/>
<feGaussianBlur stdDeviation="11.1811"/>
<feComposite in2="hardAlpha" operator="arithmetic" k2="-1" k3="1"/>
<feColorMatrix type="matrix" values="0 0 0 0 0.706667 0 0 0 0 0.706667 0 0 0 0 0.706667 0 0 0 0.2 0"/>
<feBlend mode="normal" in2="effect3_innerShadow_538_3274" result="effect4_innerShadow_538_3274"/>
<feColorMatrix in="SourceAlpha" type="matrix" values="0 0 0 0 0 0 0 0 0 0 0 0 0 0 0 0 0 0 127 0" result="hardAlpha"/>
<feOffset dy="-2.23622"/>
<feGaussianBlur stdDeviation="1.11811"/>
<feComposite in2="hardAlpha" operator="arithmetic" k2="-1" k3="1"/>
<feColorMatrix type="matrix" values="0 0 0 0 1 0 0 0 0 0.9725 0 0 0 0 0.9725 0 0 0 0.2 0"/>
<feBlend mode="normal" in2="effect4_innerShadow_538_3274" result="effect5_innerShadow_538_3274"/>
<feColorMatrix in="SourceAlpha" type="matrix" values="0 0 0 0 0 0 0 0 0 0 0 0 0 0 0 0 0 0 127 0" result="hardAlpha"/>
<feOffset dy="11.1811"/>
<feGaussianBlur stdDeviation="11.1811"/>
<feComposite in2="hardAlpha" operator="arithmetic" k2="-1" k3="1"/>
<feColorMatrix type="matrix" values="0 0 0 0 1 0 0 0 0 1 0 0 0 0 1 0 0 0 0.25 0"/>
<feBlend mode="normal" in2="effect5_innerShadow_538_3274" result="effect6_innerShadow_538_3274"/>
<feColorMatrix in="SourceAlpha" type="matrix" values="0 0 0 0 0 0 0 0 0 0 0 0 0 0 0 0 0 0 127 0" result="hardAlpha"/>
<feOffset dy="0.559055"/>
<feGaussianBlur stdDeviation="0.559055"/>
<feComposite in2="hardAlpha" operator="arithmetic" k2="-1" k3="1"/>
<feColorMatrix type="matrix" values="0 0 0 0 1 0 0 0 0 1 0 0 0 0 1 0 0 0 0.8 0"/>
<feBlend mode="normal" in2="effect6_innerShadow_538_3274" result="effect7_innerShadow_538_3274"/>
</filter>
</defs>
</svg>
