<svg width="242" height="241" viewBox="0 0 242 241" fill="none" xmlns="http://www.w3.org/2000/svg">
<g filter="url(#filter0_bdiiiii_538_3206)">
<path fill-rule="evenodd" clip-rule="evenodd" d="M104.924 188.15V145.088C104.924 142.234 103.354 139.654 101.108 137.892C93.4559 131.89 88.5438 122.566 88.5438 112.117C88.5438 104.976 90.8386 98.3454 94.7344 92.953C98.337 87.9664 104.924 91.434 104.924 97.5859V104.117C104.924 108.536 108.506 112.117 112.924 112.117H129.685C134.104 112.117 137.685 108.536 137.685 104.117V97.5948C137.685 91.4321 144.294 87.9632 147.897 92.9628C151.779 98.3506 154.066 104.965 154.066 112.117C154.066 122.6 149.154 131.929 141.502 137.932C139.256 139.694 137.685 142.273 137.685 145.128V180.189C137.685 184.608 134.104 188.189 129.685 188.189H104.964C104.942 188.189 104.924 188.172 104.924 188.15Z" fill="white" fill-opacity="0.08" shape-rendering="crispEdges"/>
</g>
<g filter="url(#filter1_bdiiiii_538_3206)">
<path fill-rule="evenodd" clip-rule="evenodd" d="M121.305 50.9584C157.477 50.9584 186.827 80.3084 186.827 116.48C186.827 152.652 157.477 182.002 121.305 182.002C85.1331 182.002 55.7831 152.652 55.7831 116.48C55.7831 80.3084 85.1331 50.9584 121.305 50.9584ZM136.944 24.1514C136.066 21.1514 133.524 18.9078 130.412 18.6158C124.328 18.0447 118.202 18.0447 112.118 18.6158C109.006 18.9078 106.464 21.1514 105.587 24.1514L103.702 30.5942C102.889 33.3728 100.63 35.4654 97.8503 36.2752C92.0273 37.9717 86.4037 40.3106 81.0822 43.2349C78.5468 44.6282 75.4712 44.7433 72.9341 43.3531L67.0735 40.1418C64.3271 38.6369 60.9361 38.8506 58.5268 40.8512C53.8235 44.7566 49.4968 49.0878 45.6092 53.7924C43.6227 56.1965 43.414 59.572 44.9095 62.3087L48.1458 68.2312C49.5315 70.7671 49.4145 73.8386 48.0251 76.3723C45.1022 81.7026 42.7751 87.3361 41.0668 93.1696C40.2566 95.9364 38.1679 98.1808 35.4009 98.9901L28.9364 100.881C25.9364 101.758 23.6929 104.301 23.4008 107.413C22.8298 113.497 22.8298 119.623 23.4008 125.707C23.6929 128.819 25.9364 131.361 28.9364 132.238L35.3793 134.123C38.1578 134.935 40.2504 137.195 41.0602 139.975C42.7573 145.8 45.0972 151.425 48.0229 156.748C49.4148 159.281 49.5315 162.352 48.1458 164.888L44.9185 170.794C43.4184 173.539 43.634 176.926 45.6319 179.333C49.5285 184.028 53.8463 188.351 58.5229 192.25C60.9338 194.26 64.3331 194.479 67.0858 192.971L72.9341 189.766C75.4712 188.376 78.5467 188.491 81.0835 189.882C86.4122 192.804 92.0438 195.13 97.8753 196.837C100.642 197.648 102.886 199.736 103.696 202.503L105.587 208.968C106.464 211.968 109.006 214.211 112.118 214.503C118.202 215.074 124.328 215.074 130.412 214.503C133.524 214.211 136.066 211.968 136.944 208.968L138.828 202.525C139.641 199.746 141.901 197.654 144.68 196.844C150.503 195.148 156.127 192.809 161.448 189.884C163.984 188.491 167.059 188.376 169.597 189.766L175.457 192.977C178.204 194.482 181.594 194.269 184.004 192.268C188.707 188.363 193.034 184.031 196.921 179.327C198.908 176.923 199.117 173.547 197.621 170.81L194.385 164.888C192.999 162.352 193.116 159.281 194.506 156.747C197.428 151.417 199.756 145.783 201.464 139.95C202.274 137.183 204.363 134.938 207.13 134.129L213.594 132.238C216.594 131.361 218.838 128.819 219.13 125.707C219.701 119.623 219.701 113.497 219.13 107.413C218.838 104.301 216.594 101.758 213.594 100.881L207.151 98.9964C204.373 98.1837 202.28 95.9241 201.47 93.1446C199.773 87.3196 197.433 81.6942 194.508 76.3711C193.116 73.8387 192.999 70.7671 194.385 68.2312L197.612 62.3252C199.112 59.58 198.897 56.1935 196.899 53.7862C193.002 49.0911 188.684 44.7681 184.008 40.8691C181.597 38.8591 178.197 38.6402 175.445 40.1485L169.597 43.3531C167.059 44.7433 163.984 44.6279 161.447 43.2371C156.118 40.3155 150.487 37.9895 144.655 36.2818C141.889 35.4716 139.644 33.3829 138.835 30.6159L136.944 24.1514Z" fill="white" fill-opacity="0.08" shape-rendering="crispEdges"/>
</g>
<g filter="url(#filter2_bdiiiii_538_3206)">
<path fill-rule="evenodd" clip-rule="evenodd" d="M41.9018 97.049C42.2287 98.1664 41.5878 99.3373 40.4704 99.6641L30.912 102.46C27.8729 103.349 25.6135 105.945 25.3683 109.102C24.9847 114.04 24.9847 119 25.3683 123.938C25.6135 127.095 27.8729 129.691 30.912 130.58L40.4704 133.376C41.2025 133.59 41.7619 134.183 41.9329 134.927C43.942 143.658 47.4204 152.008 52.1772 159.627C52.5804 160.273 52.604 161.086 52.2389 161.754L47.4599 170.5C45.9404 173.28 46.1828 176.716 48.2446 179.122C51.4609 182.875 54.9566 186.376 58.697 189.595C61.1063 191.669 64.554 191.915 67.3419 190.387L76.029 185.627C76.6976 185.261 77.5118 185.284 78.1585 185.687C85.772 190.441 94.1238 193.883 102.867 195.934C103.607 196.107 104.196 196.665 104.409 197.394L107.205 206.953C108.094 209.992 110.69 212.251 113.847 212.496C118.785 212.88 123.746 212.88 128.683 212.496C131.84 212.251 134.436 209.992 135.325 206.953L138.121 197.394C138.335 196.662 138.928 196.103 139.672 195.932C148.404 193.923 156.754 190.444 164.372 185.687C165.019 185.284 165.833 185.261 166.502 185.627L175.204 190.395C177.986 191.92 181.425 191.679 183.833 189.614C187.594 186.389 191.097 182.881 194.309 179.12C196.361 176.717 196.596 173.292 195.081 170.519L190.292 161.754C189.925 161.083 189.951 160.266 190.358 159.619C192.594 156.073 194.524 152.329 196.147 148.465C196.598 147.391 197.834 146.887 198.907 147.337C199.981 147.788 200.485 149.024 200.035 150.097C199.079 152.372 198.021 154.611 196.86 156.798C195.522 159.321 195.423 162.353 196.793 164.859L201.924 174.249C202.318 174.97 202.257 175.854 201.768 176.515C195.972 184.337 189.043 191.265 181.226 197.098C180.565 197.591 179.676 197.653 178.952 197.257L169.59 192.127C167.089 190.756 164.061 190.847 161.545 192.19C156.668 194.793 151.551 196.921 146.267 198.531C143.538 199.363 141.331 201.439 140.53 204.176L137.527 214.443C137.296 215.233 136.626 215.817 135.811 215.937C126.168 217.355 116.363 217.355 106.72 215.937C105.905 215.817 105.235 215.233 105.003 214.443L101.994 204.154C101.196 201.425 99.0009 199.353 96.2824 198.521C90.9943 196.904 85.8709 194.787 80.9865 192.186C78.4699 190.846 75.4429 190.756 72.9425 192.126L63.5783 197.257C62.8529 197.654 61.9622 197.591 61.3005 197.094C53.5253 191.263 46.5997 184.338 40.767 176.52C40.2741 175.86 40.2114 174.972 40.6067 174.249L45.7465 164.843C47.1125 162.343 47.0201 159.319 45.6783 156.806C43.0737 151.928 40.9449 146.808 39.3334 141.522C38.5018 138.793 36.426 136.586 33.6882 135.785L23.4219 132.782C22.6314 132.551 22.0479 131.88 21.9281 131.065C20.51 121.422 20.51 111.618 21.9281 101.975C22.0479 101.16 22.6314 100.489 23.4219 100.258L39.2867 95.6176C40.4042 95.2907 41.575 95.9316 41.9018 97.049Z" fill="white" fill-opacity="0.08" shape-rendering="crispEdges"/>
</g>
<g filter="url(#filter3_bdiiiii_538_3206)">
<path fill-rule="evenodd" clip-rule="evenodd" d="M106.76 17.0636C116.403 15.6455 126.207 15.6455 135.85 17.0636C136.665 17.1834 137.336 17.7669 137.567 18.5574L140.576 28.8462C141.375 31.5747 143.569 33.6472 146.288 34.4787C151.576 36.0962 156.699 38.2133 161.584 40.814C164.1 42.154 167.127 42.2445 169.628 40.8744L178.992 35.7434C179.717 35.3459 180.608 35.4094 181.27 35.9056C189.045 41.737 195.971 48.6624 201.803 56.4799C202.296 57.1405 202.359 58.028 201.964 58.7513L196.824 68.1571C195.458 70.6569 195.55 73.6811 196.892 76.1942C199.497 81.0723 201.625 86.1917 203.237 91.4786C204.069 94.2073 206.144 96.4144 208.882 97.2153L219.148 100.218C219.939 100.449 220.522 101.12 220.642 101.935C222.06 111.578 222.06 121.383 220.642 131.026C220.522 131.84 219.939 132.511 219.148 132.742L203.284 137.383C202.166 137.709 200.995 137.069 200.668 135.951C200.342 134.834 200.982 133.663 202.1 133.336L211.658 130.54C214.697 129.651 216.957 127.055 217.202 123.898C217.586 118.961 217.586 114 217.202 109.062C216.957 105.905 214.697 103.309 211.658 102.42L202.1 99.6242C201.368 99.4101 200.808 98.8171 200.637 98.0736C198.628 89.3417 195.15 80.9918 190.393 73.3733C189.99 72.7274 189.966 71.9142 190.331 71.246L195.11 62.5003C196.63 59.7198 196.388 56.2845 194.326 53.8785C191.109 50.1252 187.614 46.6243 183.873 43.4049C181.464 41.3311 178.016 41.0856 175.228 42.6132L166.541 47.3732C165.873 47.7396 165.058 47.7164 164.412 47.3127C156.798 42.559 148.446 39.1169 139.703 37.0664C138.963 36.893 138.374 36.335 138.161 35.6059L135.365 26.0475C134.476 23.0084 131.88 20.749 128.723 20.5038C123.785 20.1202 118.825 20.1202 113.887 20.5038C110.73 20.749 108.134 23.0084 107.245 26.0475L104.449 35.6059C104.235 36.338 103.642 36.8974 102.898 37.0684C94.1666 39.0775 85.8166 42.5559 78.1981 47.3127C77.5515 47.7164 76.7372 47.7396 76.0687 47.3732L67.3665 42.6049C64.5847 41.0806 61.1448 41.3211 58.7371 43.3861C54.9766 46.6114 51.4732 50.1191 48.2617 53.88C46.2097 56.2829 45.9738 59.7083 47.4891 62.4812L52.2786 71.246C52.6453 71.9171 52.6198 72.7341 52.2119 73.3811C49.9763 76.9272 48.0461 80.6709 46.4229 84.5355C45.9721 85.6089 44.7365 86.1136 43.663 85.6628C42.5896 85.2119 42.0849 83.9763 42.5358 82.9029C43.4913 80.6279 44.5492 78.3895 45.7099 76.202C47.0485 73.6792 47.1468 70.6472 45.7773 68.141L40.6464 58.7513C40.2523 58.0302 40.3132 57.1458 40.8025 56.4855C46.5981 48.6634 53.5269 41.7352 61.3443 35.9025C62.0057 35.409 62.8943 35.3468 63.618 35.7434L72.9805 40.8736C75.4817 42.2441 78.5098 42.1533 81.0257 40.8102C85.9019 38.2072 91.019 36.0796 96.3035 34.4689C99.0321 33.6373 101.239 31.5615 102.04 28.8237L105.043 18.5574C105.274 17.7669 105.945 17.1834 106.76 17.0636Z" fill="white" fill-opacity="0.08" shape-rendering="crispEdges"/>
</g>
<g filter="url(#filter4_bdiiiii_538_3206)">
<path fill-rule="evenodd" clip-rule="evenodd" d="M96.7903 58.0313C64.4949 71.5805 49.2981 108.745 62.8473 141.04C76.3966 173.336 113.561 188.533 145.856 174.983C178.152 161.434 193.349 124.27 179.799 91.9743C166.25 59.6789 129.086 44.4821 96.7903 58.0313ZM58.9595 142.671C44.5095 108.229 60.7167 68.5935 95.1592 54.1435C129.602 39.6934 169.237 55.9006 183.687 90.3432C198.137 124.786 181.93 164.421 147.487 178.871C113.045 193.321 73.4096 177.114 58.9595 142.671Z" fill="white" fill-opacity="0.08" shape-rendering="crispEdges"/>
</g>
<g filter="url(#filter5_bdiiiii_538_3206)">
<path fill-rule="evenodd" clip-rule="evenodd" d="M136.632 81.9327C137.285 81.5563 138.089 81.557 138.741 81.9346C149.163 87.9679 156.174 99.2383 156.174 112.157C156.174 123.047 151.192 132.765 143.385 139.163C141.255 140.909 139.793 143.418 139.793 146.172V180.019C139.793 181.183 138.849 182.127 137.685 182.127C136.521 182.127 135.577 181.183 135.577 180.019V140.555C135.577 139.803 135.978 139.108 136.629 138.731C145.801 133.421 151.958 123.511 151.958 112.157C151.958 107.934 151.106 103.911 149.565 100.251C146.999 94.1582 139.793 97.1754 139.793 103.786V112.157C139.793 113.321 138.849 114.265 137.685 114.265H104.924C103.76 114.265 102.816 113.321 102.816 112.157V103.78C102.816 97.1756 95.6253 94.1599 93.056 100.244C91.5077 103.91 90.6519 107.938 90.6519 112.157C90.6519 123.47 96.8074 133.38 105.981 138.691C106.632 139.068 107.032 139.763 107.032 140.515V179.979C107.032 181.144 106.089 182.087 104.924 182.087C103.76 182.087 102.816 181.144 102.816 179.979V146.133C102.816 143.378 101.355 140.869 99.2242 139.124C91.4183 132.727 86.4358 123.014 86.4358 112.157C86.4358 99.2805 93.445 87.9664 103.874 81.971C104.526 81.596 105.329 81.5971 105.98 81.9739C106.631 82.3508 107.032 83.0462 107.032 83.7986V102.049C107.032 106.467 110.614 110.049 115.032 110.049H127.577C131.995 110.049 135.577 106.467 135.577 102.049V83.7589C135.577 83.0053 135.979 82.3091 136.632 81.9327Z" fill="white" fill-opacity="0.08" shape-rendering="crispEdges"/>
</g>
<defs>
<filter id="filter0_bdiiiii_538_3206" x="48.5438" y="50.5708" width="145.522" height="177.619" filterUnits="userSpaceOnUse" color-interpolation-filters="sRGB">
<feFlood flood-opacity="0" result="BackgroundImageFix"/>
<feGaussianBlur in="BackgroundImageFix" stdDeviation="20"/>
<feComposite in2="SourceAlpha" operator="in" result="effect1_backgroundBlur_538_3206"/>
<feColorMatrix in="SourceAlpha" type="matrix" values="0 0 0 0 0 0 0 0 0 0 0 0 0 0 0 0 0 0 127 0" result="hardAlpha"/>
<feOffset dy="4"/>
<feGaussianBlur stdDeviation="10"/>
<feComposite in2="hardAlpha" operator="out"/>
<feColorMatrix type="matrix" values="0 0 0 0 0 0 0 0 0 0 0 0 0 0 0 0 0 0 0.2 0"/>
<feBlend mode="normal" in2="effect1_backgroundBlur_538_3206" result="effect2_dropShadow_538_3206"/>
<feBlend mode="normal" in="SourceGraphic" in2="effect2_dropShadow_538_3206" result="shape"/>
<feColorMatrix in="SourceAlpha" type="matrix" values="0 0 0 0 0 0 0 0 0 0 0 0 0 0 0 0 0 0 127 0" result="hardAlpha"/>
<feOffset dy="4"/>
<feGaussianBlur stdDeviation="6"/>
<feComposite in2="hardAlpha" operator="arithmetic" k2="-1" k3="1"/>
<feColorMatrix type="matrix" values="0 0 0 0 1 0 0 0 0 1 0 0 0 0 1 0 0 0 0.4 0"/>
<feBlend mode="normal" in2="shape" result="effect3_innerShadow_538_3206"/>
<feColorMatrix in="SourceAlpha" type="matrix" values="0 0 0 0 0 0 0 0 0 0 0 0 0 0 0 0 0 0 127 0" result="hardAlpha"/>
<feOffset dy="-40"/>
<feGaussianBlur stdDeviation="20"/>
<feComposite in2="hardAlpha" operator="arithmetic" k2="-1" k3="1"/>
<feColorMatrix type="matrix" values="0 0 0 0 0.706667 0 0 0 0 0.706667 0 0 0 0 0.706667 0 0 0 0.2 0"/>
<feBlend mode="normal" in2="effect3_innerShadow_538_3206" result="effect4_innerShadow_538_3206"/>
<feColorMatrix in="SourceAlpha" type="matrix" values="0 0 0 0 0 0 0 0 0 0 0 0 0 0 0 0 0 0 127 0" result="hardAlpha"/>
<feOffset dy="-4"/>
<feGaussianBlur stdDeviation="2"/>
<feComposite in2="hardAlpha" operator="arithmetic" k2="-1" k3="1"/>
<feColorMatrix type="matrix" values="0 0 0 0 1 0 0 0 0 0.9725 0 0 0 0 0.9725 0 0 0 0.2 0"/>
<feBlend mode="normal" in2="effect4_innerShadow_538_3206" result="effect5_innerShadow_538_3206"/>
<feColorMatrix in="SourceAlpha" type="matrix" values="0 0 0 0 0 0 0 0 0 0 0 0 0 0 0 0 0 0 127 0" result="hardAlpha"/>
<feOffset dy="20"/>
<feGaussianBlur stdDeviation="20"/>
<feComposite in2="hardAlpha" operator="arithmetic" k2="-1" k3="1"/>
<feColorMatrix type="matrix" values="0 0 0 0 1 0 0 0 0 1 0 0 0 0 1 0 0 0 0.25 0"/>
<feBlend mode="normal" in2="effect5_innerShadow_538_3206" result="effect6_innerShadow_538_3206"/>
<feColorMatrix in="SourceAlpha" type="matrix" values="0 0 0 0 0 0 0 0 0 0 0 0 0 0 0 0 0 0 127 0" result="hardAlpha"/>
<feOffset dy="1"/>
<feGaussianBlur stdDeviation="1"/>
<feComposite in2="hardAlpha" operator="arithmetic" k2="-1" k3="1"/>
<feColorMatrix type="matrix" values="0 0 0 0 1 0 0 0 0 1 0 0 0 0 1 0 0 0 0.8 0"/>
<feBlend mode="normal" in2="effect6_innerShadow_538_3206" result="effect7_innerShadow_538_3206"/>
</filter>
<filter id="filter1_bdiiiii_538_3206" x="-17.0275" y="-21.8125" width="276.586" height="276.744" filterUnits="userSpaceOnUse" color-interpolation-filters="sRGB">
<feFlood flood-opacity="0" result="BackgroundImageFix"/>
<feGaussianBlur in="BackgroundImageFix" stdDeviation="20"/>
<feComposite in2="SourceAlpha" operator="in" result="effect1_backgroundBlur_538_3206"/>
<feColorMatrix in="SourceAlpha" type="matrix" values="0 0 0 0 0 0 0 0 0 0 0 0 0 0 0 0 0 0 127 0" result="hardAlpha"/>
<feOffset dy="4"/>
<feGaussianBlur stdDeviation="10"/>
<feComposite in2="hardAlpha" operator="out"/>
<feColorMatrix type="matrix" values="0 0 0 0 0 0 0 0 0 0 0 0 0 0 0 0 0 0 0.2 0"/>
<feBlend mode="normal" in2="effect1_backgroundBlur_538_3206" result="effect2_dropShadow_538_3206"/>
<feBlend mode="normal" in="SourceGraphic" in2="effect2_dropShadow_538_3206" result="shape"/>
<feColorMatrix in="SourceAlpha" type="matrix" values="0 0 0 0 0 0 0 0 0 0 0 0 0 0 0 0 0 0 127 0" result="hardAlpha"/>
<feOffset dy="4"/>
<feGaussianBlur stdDeviation="6"/>
<feComposite in2="hardAlpha" operator="arithmetic" k2="-1" k3="1"/>
<feColorMatrix type="matrix" values="0 0 0 0 1 0 0 0 0 1 0 0 0 0 1 0 0 0 0.4 0"/>
<feBlend mode="normal" in2="shape" result="effect3_innerShadow_538_3206"/>
<feColorMatrix in="SourceAlpha" type="matrix" values="0 0 0 0 0 0 0 0 0 0 0 0 0 0 0 0 0 0 127 0" result="hardAlpha"/>
<feOffset dy="-40"/>
<feGaussianBlur stdDeviation="20"/>
<feComposite in2="hardAlpha" operator="arithmetic" k2="-1" k3="1"/>
<feColorMatrix type="matrix" values="0 0 0 0 0.706667 0 0 0 0 0.706667 0 0 0 0 0.706667 0 0 0 0.2 0"/>
<feBlend mode="normal" in2="effect3_innerShadow_538_3206" result="effect4_innerShadow_538_3206"/>
<feColorMatrix in="SourceAlpha" type="matrix" values="0 0 0 0 0 0 0 0 0 0 0 0 0 0 0 0 0 0 127 0" result="hardAlpha"/>
<feOffset dy="-4"/>
<feGaussianBlur stdDeviation="2"/>
<feComposite in2="hardAlpha" operator="arithmetic" k2="-1" k3="1"/>
<feColorMatrix type="matrix" values="0 0 0 0 1 0 0 0 0 0.9725 0 0 0 0 0.9725 0 0 0 0.2 0"/>
<feBlend mode="normal" in2="effect4_innerShadow_538_3206" result="effect5_innerShadow_538_3206"/>
<feColorMatrix in="SourceAlpha" type="matrix" values="0 0 0 0 0 0 0 0 0 0 0 0 0 0 0 0 0 0 127 0" result="hardAlpha"/>
<feOffset dy="20"/>
<feGaussianBlur stdDeviation="20"/>
<feComposite in2="hardAlpha" operator="arithmetic" k2="-1" k3="1"/>
<feColorMatrix type="matrix" values="0 0 0 0 1 0 0 0 0 1 0 0 0 0 1 0 0 0 0.25 0"/>
<feBlend mode="normal" in2="effect5_innerShadow_538_3206" result="effect6_innerShadow_538_3206"/>
<feColorMatrix in="SourceAlpha" type="matrix" values="0 0 0 0 0 0 0 0 0 0 0 0 0 0 0 0 0 0 127 0" result="hardAlpha"/>
<feOffset dy="1"/>
<feGaussianBlur stdDeviation="1"/>
<feComposite in2="hardAlpha" operator="arithmetic" k2="-1" k3="1"/>
<feColorMatrix type="matrix" values="0 0 0 0 1 0 0 0 0 1 0 0 0 0 1 0 0 0 0.8 0"/>
<feBlend mode="normal" in2="effect6_innerShadow_538_3206" result="effect7_innerShadow_538_3206"/>
</filter>
<filter id="filter2_bdiiiii_538_3206" x="-19.1355" y="55.5322" width="261.318" height="201.468" filterUnits="userSpaceOnUse" color-interpolation-filters="sRGB">
<feFlood flood-opacity="0" result="BackgroundImageFix"/>
<feGaussianBlur in="BackgroundImageFix" stdDeviation="20"/>
<feComposite in2="SourceAlpha" operator="in" result="effect1_backgroundBlur_538_3206"/>
<feColorMatrix in="SourceAlpha" type="matrix" values="0 0 0 0 0 0 0 0 0 0 0 0 0 0 0 0 0 0 127 0" result="hardAlpha"/>
<feOffset dy="4"/>
<feGaussianBlur stdDeviation="10"/>
<feComposite in2="hardAlpha" operator="out"/>
<feColorMatrix type="matrix" values="0 0 0 0 0 0 0 0 0 0 0 0 0 0 0 0 0 0 0.2 0"/>
<feBlend mode="normal" in2="effect1_backgroundBlur_538_3206" result="effect2_dropShadow_538_3206"/>
<feBlend mode="normal" in="SourceGraphic" in2="effect2_dropShadow_538_3206" result="shape"/>
<feColorMatrix in="SourceAlpha" type="matrix" values="0 0 0 0 0 0 0 0 0 0 0 0 0 0 0 0 0 0 127 0" result="hardAlpha"/>
<feOffset dy="4"/>
<feGaussianBlur stdDeviation="6"/>
<feComposite in2="hardAlpha" operator="arithmetic" k2="-1" k3="1"/>
<feColorMatrix type="matrix" values="0 0 0 0 1 0 0 0 0 1 0 0 0 0 1 0 0 0 0.4 0"/>
<feBlend mode="normal" in2="shape" result="effect3_innerShadow_538_3206"/>
<feColorMatrix in="SourceAlpha" type="matrix" values="0 0 0 0 0 0 0 0 0 0 0 0 0 0 0 0 0 0 127 0" result="hardAlpha"/>
<feOffset dy="-40"/>
<feGaussianBlur stdDeviation="20"/>
<feComposite in2="hardAlpha" operator="arithmetic" k2="-1" k3="1"/>
<feColorMatrix type="matrix" values="0 0 0 0 0.706667 0 0 0 0 0.706667 0 0 0 0 0.706667 0 0 0 0.2 0"/>
<feBlend mode="normal" in2="effect3_innerShadow_538_3206" result="effect4_innerShadow_538_3206"/>
<feColorMatrix in="SourceAlpha" type="matrix" values="0 0 0 0 0 0 0 0 0 0 0 0 0 0 0 0 0 0 127 0" result="hardAlpha"/>
<feOffset dy="-4"/>
<feGaussianBlur stdDeviation="2"/>
<feComposite in2="hardAlpha" operator="arithmetic" k2="-1" k3="1"/>
<feColorMatrix type="matrix" values="0 0 0 0 1 0 0 0 0 0.9725 0 0 0 0 0.9725 0 0 0 0.2 0"/>
<feBlend mode="normal" in2="effect4_innerShadow_538_3206" result="effect5_innerShadow_538_3206"/>
<feColorMatrix in="SourceAlpha" type="matrix" values="0 0 0 0 0 0 0 0 0 0 0 0 0 0 0 0 0 0 127 0" result="hardAlpha"/>
<feOffset dy="20"/>
<feGaussianBlur stdDeviation="20"/>
<feComposite in2="hardAlpha" operator="arithmetic" k2="-1" k3="1"/>
<feColorMatrix type="matrix" values="0 0 0 0 1 0 0 0 0 1 0 0 0 0 1 0 0 0 0.25 0"/>
<feBlend mode="normal" in2="effect5_innerShadow_538_3206" result="effect6_innerShadow_538_3206"/>
<feColorMatrix in="SourceAlpha" type="matrix" values="0 0 0 0 0 0 0 0 0 0 0 0 0 0 0 0 0 0 127 0" result="hardAlpha"/>
<feOffset dy="1"/>
<feGaussianBlur stdDeviation="1"/>
<feComposite in2="hardAlpha" operator="arithmetic" k2="-1" k3="1"/>
<feColorMatrix type="matrix" values="0 0 0 0 1 0 0 0 0 1 0 0 0 0 1 0 0 0 0.8 0"/>
<feBlend mode="normal" in2="effect6_innerShadow_538_3206" result="effect7_innerShadow_538_3206"/>
</filter>
<filter id="filter3_bdiiiii_538_3206" x="0.388184" y="-24" width="261.318" height="201.468" filterUnits="userSpaceOnUse" color-interpolation-filters="sRGB">
<feFlood flood-opacity="0" result="BackgroundImageFix"/>
<feGaussianBlur in="BackgroundImageFix" stdDeviation="20"/>
<feComposite in2="SourceAlpha" operator="in" result="effect1_backgroundBlur_538_3206"/>
<feColorMatrix in="SourceAlpha" type="matrix" values="0 0 0 0 0 0 0 0 0 0 0 0 0 0 0 0 0 0 127 0" result="hardAlpha"/>
<feOffset dy="4"/>
<feGaussianBlur stdDeviation="10"/>
<feComposite in2="hardAlpha" operator="out"/>
<feColorMatrix type="matrix" values="0 0 0 0 0 0 0 0 0 0 0 0 0 0 0 0 0 0 0.2 0"/>
<feBlend mode="normal" in2="effect1_backgroundBlur_538_3206" result="effect2_dropShadow_538_3206"/>
<feBlend mode="normal" in="SourceGraphic" in2="effect2_dropShadow_538_3206" result="shape"/>
<feColorMatrix in="SourceAlpha" type="matrix" values="0 0 0 0 0 0 0 0 0 0 0 0 0 0 0 0 0 0 127 0" result="hardAlpha"/>
<feOffset dy="4"/>
<feGaussianBlur stdDeviation="6"/>
<feComposite in2="hardAlpha" operator="arithmetic" k2="-1" k3="1"/>
<feColorMatrix type="matrix" values="0 0 0 0 1 0 0 0 0 1 0 0 0 0 1 0 0 0 0.4 0"/>
<feBlend mode="normal" in2="shape" result="effect3_innerShadow_538_3206"/>
<feColorMatrix in="SourceAlpha" type="matrix" values="0 0 0 0 0 0 0 0 0 0 0 0 0 0 0 0 0 0 127 0" result="hardAlpha"/>
<feOffset dy="-40"/>
<feGaussianBlur stdDeviation="20"/>
<feComposite in2="hardAlpha" operator="arithmetic" k2="-1" k3="1"/>
<feColorMatrix type="matrix" values="0 0 0 0 0.706667 0 0 0 0 0.706667 0 0 0 0 0.706667 0 0 0 0.2 0"/>
<feBlend mode="normal" in2="effect3_innerShadow_538_3206" result="effect4_innerShadow_538_3206"/>
<feColorMatrix in="SourceAlpha" type="matrix" values="0 0 0 0 0 0 0 0 0 0 0 0 0 0 0 0 0 0 127 0" result="hardAlpha"/>
<feOffset dy="-4"/>
<feGaussianBlur stdDeviation="2"/>
<feComposite in2="hardAlpha" operator="arithmetic" k2="-1" k3="1"/>
<feColorMatrix type="matrix" values="0 0 0 0 1 0 0 0 0 0.9725 0 0 0 0 0.9725 0 0 0 0.2 0"/>
<feBlend mode="normal" in2="effect4_innerShadow_538_3206" result="effect5_innerShadow_538_3206"/>
<feColorMatrix in="SourceAlpha" type="matrix" values="0 0 0 0 0 0 0 0 0 0 0 0 0 0 0 0 0 0 127 0" result="hardAlpha"/>
<feOffset dy="20"/>
<feGaussianBlur stdDeviation="20"/>
<feComposite in2="hardAlpha" operator="arithmetic" k2="-1" k3="1"/>
<feColorMatrix type="matrix" values="0 0 0 0 1 0 0 0 0 1 0 0 0 0 1 0 0 0 0.25 0"/>
<feBlend mode="normal" in2="effect5_innerShadow_538_3206" result="effect6_innerShadow_538_3206"/>
<feColorMatrix in="SourceAlpha" type="matrix" values="0 0 0 0 0 0 0 0 0 0 0 0 0 0 0 0 0 0 127 0" result="hardAlpha"/>
<feOffset dy="1"/>
<feGaussianBlur stdDeviation="1"/>
<feComposite in2="hardAlpha" operator="arithmetic" k2="-1" k3="1"/>
<feColorMatrix type="matrix" values="0 0 0 0 1 0 0 0 0 1 0 0 0 0 1 0 0 0 0.8 0"/>
<feBlend mode="normal" in2="effect6_innerShadow_538_3206" result="effect7_innerShadow_538_3206"/>
</filter>
<filter id="filter4_bdiiiii_538_3206" x="13.6759" y="8.85986" width="215.295" height="215.295" filterUnits="userSpaceOnUse" color-interpolation-filters="sRGB">
<feFlood flood-opacity="0" result="BackgroundImageFix"/>
<feGaussianBlur in="BackgroundImageFix" stdDeviation="20"/>
<feComposite in2="SourceAlpha" operator="in" result="effect1_backgroundBlur_538_3206"/>
<feColorMatrix in="SourceAlpha" type="matrix" values="0 0 0 0 0 0 0 0 0 0 0 0 0 0 0 0 0 0 127 0" result="hardAlpha"/>
<feOffset dy="4"/>
<feGaussianBlur stdDeviation="10"/>
<feComposite in2="hardAlpha" operator="out"/>
<feColorMatrix type="matrix" values="0 0 0 0 0 0 0 0 0 0 0 0 0 0 0 0 0 0 0.2 0"/>
<feBlend mode="normal" in2="effect1_backgroundBlur_538_3206" result="effect2_dropShadow_538_3206"/>
<feBlend mode="normal" in="SourceGraphic" in2="effect2_dropShadow_538_3206" result="shape"/>
<feColorMatrix in="SourceAlpha" type="matrix" values="0 0 0 0 0 0 0 0 0 0 0 0 0 0 0 0 0 0 127 0" result="hardAlpha"/>
<feOffset dy="4"/>
<feGaussianBlur stdDeviation="6"/>
<feComposite in2="hardAlpha" operator="arithmetic" k2="-1" k3="1"/>
<feColorMatrix type="matrix" values="0 0 0 0 1 0 0 0 0 1 0 0 0 0 1 0 0 0 0.4 0"/>
<feBlend mode="normal" in2="shape" result="effect3_innerShadow_538_3206"/>
<feColorMatrix in="SourceAlpha" type="matrix" values="0 0 0 0 0 0 0 0 0 0 0 0 0 0 0 0 0 0 127 0" result="hardAlpha"/>
<feOffset dy="-40"/>
<feGaussianBlur stdDeviation="20"/>
<feComposite in2="hardAlpha" operator="arithmetic" k2="-1" k3="1"/>
<feColorMatrix type="matrix" values="0 0 0 0 0.706667 0 0 0 0 0.706667 0 0 0 0 0.706667 0 0 0 0.2 0"/>
<feBlend mode="normal" in2="effect3_innerShadow_538_3206" result="effect4_innerShadow_538_3206"/>
<feColorMatrix in="SourceAlpha" type="matrix" values="0 0 0 0 0 0 0 0 0 0 0 0 0 0 0 0 0 0 127 0" result="hardAlpha"/>
<feOffset dy="-4"/>
<feGaussianBlur stdDeviation="2"/>
<feComposite in2="hardAlpha" operator="arithmetic" k2="-1" k3="1"/>
<feColorMatrix type="matrix" values="0 0 0 0 1 0 0 0 0 0.9725 0 0 0 0 0.9725 0 0 0 0.2 0"/>
<feBlend mode="normal" in2="effect4_innerShadow_538_3206" result="effect5_innerShadow_538_3206"/>
<feColorMatrix in="SourceAlpha" type="matrix" values="0 0 0 0 0 0 0 0 0 0 0 0 0 0 0 0 0 0 127 0" result="hardAlpha"/>
<feOffset dy="20"/>
<feGaussianBlur stdDeviation="20"/>
<feComposite in2="hardAlpha" operator="arithmetic" k2="-1" k3="1"/>
<feColorMatrix type="matrix" values="0 0 0 0 1 0 0 0 0 1 0 0 0 0 1 0 0 0 0.25 0"/>
<feBlend mode="normal" in2="effect5_innerShadow_538_3206" result="effect6_innerShadow_538_3206"/>
<feColorMatrix in="SourceAlpha" type="matrix" values="0 0 0 0 0 0 0 0 0 0 0 0 0 0 0 0 0 0 127 0" result="hardAlpha"/>
<feOffset dy="1"/>
<feGaussianBlur stdDeviation="1"/>
<feComposite in2="hardAlpha" operator="arithmetic" k2="-1" k3="1"/>
<feColorMatrix type="matrix" values="0 0 0 0 1 0 0 0 0 1 0 0 0 0 1 0 0 0 0.8 0"/>
<feBlend mode="normal" in2="effect6_innerShadow_538_3206" result="effect7_innerShadow_538_3206"/>
</filter>
<filter id="filter5_bdiiiii_538_3206" x="46.4358" y="41.6509" width="149.738" height="180.476" filterUnits="userSpaceOnUse" color-interpolation-filters="sRGB">
<feFlood flood-opacity="0" result="BackgroundImageFix"/>
<feGaussianBlur in="BackgroundImageFix" stdDeviation="20"/>
<feComposite in2="SourceAlpha" operator="in" result="effect1_backgroundBlur_538_3206"/>
<feColorMatrix in="SourceAlpha" type="matrix" values="0 0 0 0 0 0 0 0 0 0 0 0 0 0 0 0 0 0 127 0" result="hardAlpha"/>
<feOffset dy="4"/>
<feGaussianBlur stdDeviation="10"/>
<feComposite in2="hardAlpha" operator="out"/>
<feColorMatrix type="matrix" values="0 0 0 0 0 0 0 0 0 0 0 0 0 0 0 0 0 0 0.2 0"/>
<feBlend mode="normal" in2="effect1_backgroundBlur_538_3206" result="effect2_dropShadow_538_3206"/>
<feBlend mode="normal" in="SourceGraphic" in2="effect2_dropShadow_538_3206" result="shape"/>
<feColorMatrix in="SourceAlpha" type="matrix" values="0 0 0 0 0 0 0 0 0 0 0 0 0 0 0 0 0 0 127 0" result="hardAlpha"/>
<feOffset dy="4"/>
<feGaussianBlur stdDeviation="6"/>
<feComposite in2="hardAlpha" operator="arithmetic" k2="-1" k3="1"/>
<feColorMatrix type="matrix" values="0 0 0 0 1 0 0 0 0 1 0 0 0 0 1 0 0 0 0.4 0"/>
<feBlend mode="normal" in2="shape" result="effect3_innerShadow_538_3206"/>
<feColorMatrix in="SourceAlpha" type="matrix" values="0 0 0 0 0 0 0 0 0 0 0 0 0 0 0 0 0 0 127 0" result="hardAlpha"/>
<feOffset dy="-40"/>
<feGaussianBlur stdDeviation="20"/>
<feComposite in2="hardAlpha" operator="arithmetic" k2="-1" k3="1"/>
<feColorMatrix type="matrix" values="0 0 0 0 0.706667 0 0 0 0 0.706667 0 0 0 0 0.706667 0 0 0 0.2 0"/>
<feBlend mode="normal" in2="effect3_innerShadow_538_3206" result="effect4_innerShadow_538_3206"/>
<feColorMatrix in="SourceAlpha" type="matrix" values="0 0 0 0 0 0 0 0 0 0 0 0 0 0 0 0 0 0 127 0" result="hardAlpha"/>
<feOffset dy="-4"/>
<feGaussianBlur stdDeviation="2"/>
<feComposite in2="hardAlpha" operator="arithmetic" k2="-1" k3="1"/>
<feColorMatrix type="matrix" values="0 0 0 0 1 0 0 0 0 0.9725 0 0 0 0 0.9725 0 0 0 0.2 0"/>
<feBlend mode="normal" in2="effect4_innerShadow_538_3206" result="effect5_innerShadow_538_3206"/>
<feColorMatrix in="SourceAlpha" type="matrix" values="0 0 0 0 0 0 0 0 0 0 0 0 0 0 0 0 0 0 127 0" result="hardAlpha"/>
<feOffset dy="20"/>
<feGaussianBlur stdDeviation="20"/>
<feComposite in2="hardAlpha" operator="arithmetic" k2="-1" k3="1"/>
<feColorMatrix type="matrix" values="0 0 0 0 1 0 0 0 0 1 0 0 0 0 1 0 0 0 0.25 0"/>
<feBlend mode="normal" in2="effect5_innerShadow_538_3206" result="effect6_innerShadow_538_3206"/>
<feColorMatrix in="SourceAlpha" type="matrix" values="0 0 0 0 0 0 0 0 0 0 0 0 0 0 0 0 0 0 127 0" result="hardAlpha"/>
<feOffset dy="1"/>
<feGaussianBlur stdDeviation="1"/>
<feComposite in2="hardAlpha" operator="arithmetic" k2="-1" k3="1"/>
<feColorMatrix type="matrix" values="0 0 0 0 1 0 0 0 0 1 0 0 0 0 1 0 0 0 0.8 0"/>
<feBlend mode="normal" in2="effect6_innerShadow_538_3206" result="effect7_innerShadow_538_3206"/>
</filter>
</defs>
</svg>
