<svg width="749" height="148" viewBox="0 0 749 148" fill="none" xmlns="http://www.w3.org/2000/svg">
<path d="M0 97.1751V18.9435L29.2045 33.9404V0L89.1921 33.9404V61.5662L60.7769 76.5631V50.5159L29.2045 33.9404V127.079L12.4194 118.006C4.76813 113.87 0 105.873 0 97.1751Z" fill="white"/>
<path d="M59.9874 77.3525L37.8867 92.3494C58.481 92.3494 65.458 113.599 66.7255 131.026C67.168 137.109 66.9146 142.727 66.3019 146.812L75.7736 140.497V127.868L71.8271 130.236L77.3523 116.029L85.2454 122.343L82.0881 123.922V135.762L89.1919 131.026C92.3492 100.085 70.7747 79.9836 59.9874 77.3525Z" fill="white"/>
<path d="M139.506 41.6818H169.756C178.147 41.6818 184.44 43.5427 188.636 47.2647C192.832 50.9189 194.929 56.0281 194.929 62.5922C194.929 66.1111 193.948 69.3932 191.986 72.4384C190.091 75.4836 187.249 77.9536 183.459 79.8484C186.031 80.7281 188.061 82.1831 189.549 84.2132C191.038 86.2434 192.019 88.781 192.493 91.8262L195.944 114.767H186.707L184.068 95.582C183.662 92.6721 182.884 90.3375 181.733 88.578C180.651 86.8186 179.162 85.5328 177.267 84.7208C175.372 83.9087 173.004 83.5027 170.162 83.5027H148.439V114.767H139.506V41.6818ZM169.756 75.3821C175.169 75.3821 179.162 74.2655 181.733 72.0324C184.373 69.7315 185.692 66.5848 185.692 62.5922C185.692 58.5996 184.373 55.4867 181.733 53.2536C179.162 50.9527 175.169 49.8023 169.756 49.8023H148.439V75.3821H169.756ZM228.259 115.985C223.116 115.985 218.582 114.801 214.657 112.432C210.799 110.064 207.822 106.782 205.724 102.586C203.694 98.3904 202.679 93.6534 202.679 88.375C202.679 83.0966 203.694 78.3596 205.724 74.164C207.822 69.9684 210.799 66.6863 214.657 64.3178C218.582 61.9493 223.116 60.7651 228.259 60.7651C233.402 60.7651 237.902 61.9493 241.759 64.3178C245.684 66.6863 248.661 69.9684 250.692 74.164C252.789 78.3596 253.838 83.0966 253.838 88.375C253.838 93.6534 252.789 98.3904 250.692 102.586C248.661 106.782 245.684 110.064 241.759 112.432C237.902 114.801 233.402 115.985 228.259 115.985ZM228.259 108.27C231.913 108.27 234.958 107.425 237.394 105.733C239.898 104.041 241.759 101.706 242.977 98.7287C244.263 95.7512 244.906 92.2999 244.906 88.375C244.906 84.4501 244.263 80.9988 242.977 78.0213C241.759 75.0437 239.898 72.7091 237.394 71.0173C234.958 69.3255 231.913 68.4796 228.259 68.4796C224.604 68.4796 221.525 69.3255 219.021 71.0173C216.585 72.7091 214.724 75.0437 213.439 78.0213C212.22 80.9988 211.611 84.4501 211.611 88.375C211.611 92.2999 212.22 95.7512 213.439 98.7287C214.724 101.706 216.585 104.041 219.021 105.733C221.525 107.425 224.604 108.27 228.259 108.27ZM282.674 115.985C276.042 115.985 270.696 114.462 266.636 111.417C262.644 108.304 260.478 103.669 260.14 97.5106H268.768C269.174 101.436 270.493 104.278 272.727 106.037C275.027 107.729 278.343 108.575 282.674 108.575C286.599 108.575 289.644 107.898 291.81 106.545C294.043 105.124 295.16 103.161 295.16 100.657C295.16 98.9656 294.855 97.646 294.246 96.6986C293.637 95.6835 292.385 94.8038 290.49 94.0594C288.596 93.315 285.719 92.6383 281.862 92.0293C276.652 91.1495 272.557 89.9991 269.58 88.578C266.67 87.0893 264.64 85.3298 263.489 83.2997C262.339 81.2695 261.764 78.7657 261.764 75.7881C261.764 71.2542 263.557 67.6337 267.144 64.9269C270.798 62.1524 275.467 60.7651 281.152 60.7651C287.851 60.7651 293.096 62.2877 296.885 65.3329C300.743 68.3781 302.705 72.6753 302.773 78.2243H294.246C294.111 74.5024 292.893 71.897 290.592 70.4083C288.291 68.9195 285.144 68.1751 281.152 68.1751C278.039 68.1751 275.433 68.8518 273.336 70.2052C271.305 71.491 270.29 73.3181 270.29 75.6866C270.29 77.3784 270.663 78.7318 271.407 79.7469C272.151 80.6943 273.471 81.5064 275.366 82.1831C277.328 82.8598 280.204 83.5365 283.994 84.2132C289.137 85.0929 293.129 86.2095 295.972 87.563C298.814 88.9164 300.81 90.6082 301.961 92.6383C303.179 94.6008 303.788 97.1046 303.788 100.15C303.788 105.09 301.825 108.981 297.9 111.823C293.975 114.598 288.9 115.985 282.674 115.985ZM334.701 115.985C329.828 115.985 325.497 114.801 321.708 112.432C317.986 110.064 315.11 106.782 313.08 102.586C311.049 98.3904 310.034 93.6534 310.034 88.375C310.034 83.0966 311.049 78.3596 313.08 74.164C315.11 69.9684 317.986 66.6863 321.708 64.3178C325.497 61.9493 329.828 60.7651 334.701 60.7651C339.573 60.7651 343.87 61.9493 347.592 64.3178C351.382 66.6863 354.291 69.9684 356.322 74.164C358.352 78.3596 359.367 83.0966 359.367 88.375V91.4202H319.068C319.407 94.8038 320.219 97.7475 321.505 100.251C322.79 102.755 324.55 104.718 326.783 106.139C329.016 107.56 331.655 108.27 334.701 108.27C338.152 108.27 341.163 107.425 343.735 105.733C346.306 104.041 348.201 101.706 349.419 98.7287H358.25C356.558 104.007 353.615 108.203 349.419 111.316C345.291 114.428 340.385 115.985 334.701 115.985ZM350.13 83.7057C349.453 79.0364 347.795 75.3483 345.156 72.6414C342.517 69.8669 339.032 68.4796 334.701 68.4796C330.37 68.4796 326.885 69.8669 324.245 72.6414C321.606 75.3483 319.948 79.0364 319.272 83.7057H350.13ZM387.131 114.767C384.086 114.767 381.65 114.361 379.823 113.549C378.063 112.669 376.778 111.349 375.966 109.59C375.154 107.831 374.747 105.564 374.747 102.789V69.4947H365.003V61.9832H374.747V45.742H383.274V61.9832H397.485V69.4947H383.274V101.774C383.274 103.669 383.714 105.056 384.594 105.936C385.473 106.815 386.861 107.255 388.755 107.255H397.485V114.767H387.131ZM424.304 114.767C421.259 114.767 418.823 114.361 416.996 113.549C415.236 112.669 413.951 111.349 413.139 109.59C412.327 107.831 411.92 105.564 411.92 102.789V69.4947H402.176V61.9832H411.92V45.742H420.447V61.9832H434.658V69.4947H420.447V101.774C420.447 103.669 420.887 105.056 421.767 105.936C422.646 106.815 424.034 107.255 425.928 107.255H434.658V114.767H424.304ZM459.853 115.985C453.898 115.985 449.229 114.632 445.845 111.925C442.462 109.218 440.77 105.394 440.77 100.454C440.77 97.4091 441.514 94.8038 443.003 92.6383C444.492 90.4728 446.623 88.6795 449.398 87.2584C452.24 85.8373 455.691 84.7546 459.752 84.0102L476.297 80.8635V76.8032C476.297 73.758 475.316 71.5925 473.354 70.3068C471.391 68.9533 468.515 68.2766 464.726 68.2766C461.004 68.2766 457.857 69.021 455.285 70.5098C452.714 71.9985 451.327 74.57 451.124 78.2243H442.597C442.8 72.2692 444.966 67.8706 449.093 65.0284C453.289 62.1862 458.5 60.7651 464.726 60.7651C471.357 60.7651 476.331 62.1185 479.647 64.8254C482.963 67.4646 484.621 71.1865 484.621 75.9911V114.767H476.703V108.169C474.538 110.943 472.034 112.94 469.192 114.158C466.35 115.376 463.237 115.985 459.853 115.985ZM460.259 108.473C462.966 108.473 465.538 107.966 467.974 106.951C470.41 105.868 472.406 104.244 473.963 102.078C475.519 99.8453 476.297 97.1046 476.297 93.8564V88.0705L460.97 91.2172C457.045 92.0293 454.169 93.0443 452.342 94.2624C450.515 95.4805 449.601 97.4768 449.601 100.251C449.601 102.823 450.481 104.853 452.24 106.342C454 107.763 456.673 108.473 460.259 108.473ZM522.962 115.985C517.278 115.985 512.202 115.071 507.736 113.244C503.27 111.417 499.683 108.609 496.976 104.819C494.337 100.962 492.916 96.0895 492.713 90.2021H501.95C502.153 96.4279 504.183 100.928 508.041 103.703C511.965 106.477 516.939 107.864 522.962 107.864C528.376 107.864 532.707 106.748 535.955 104.515C539.271 102.214 540.929 98.9317 540.929 94.6684C540.929 92.2999 540.354 90.3713 539.203 88.8825C538.12 87.3261 536.09 85.9388 533.113 84.7208C530.203 83.5027 525.94 82.2846 520.323 81.0665C514.503 79.8484 509.8 78.4273 506.213 76.8032C502.627 75.1114 499.886 72.8783 497.991 70.1037C496.164 67.3292 495.251 63.7765 495.251 59.4455C495.251 55.6559 496.333 52.34 498.499 49.4978C500.664 46.5879 503.608 44.3548 507.33 42.7983C511.12 41.2419 515.349 40.4637 520.018 40.4637C529.628 40.4637 536.767 42.6968 541.436 47.1631C546.173 51.6295 548.61 57.3815 548.745 64.4193H539.609C539.271 59.141 537.545 55.1822 534.432 52.543C531.319 49.9038 526.515 48.5842 520.018 48.5842C515.349 48.5842 511.593 49.5655 508.751 51.5279C505.909 53.4904 504.488 56.1296 504.488 59.4455C504.488 61.9493 504.928 63.9795 505.807 65.5359C506.755 67.0247 508.582 68.3781 511.289 69.5962C514.063 70.8143 518.259 71.9985 523.876 73.1489C530.846 74.57 536.226 76.2957 540.015 78.3258C543.805 80.2883 546.444 82.5891 547.933 85.2283C549.422 87.7998 550.166 90.9465 550.166 94.6684C550.166 98.9317 549.016 102.688 546.715 105.936C544.482 109.116 541.301 111.586 537.173 113.346C533.113 115.105 528.376 115.985 522.962 115.985ZM553.818 61.9832H563.055L577.164 103.804L589.65 61.9832H598.481L610.966 103.804L625.076 61.9832H634.313L615.23 114.767H606.5L594.116 73.352L581.631 114.767H572.901L553.818 61.9832ZM657.415 115.985C651.46 115.985 646.791 114.632 643.407 111.925C640.024 109.218 638.332 105.394 638.332 100.454C638.332 97.4091 639.076 94.8038 640.565 92.6383C642.054 90.4728 644.186 88.6795 646.96 87.2584C649.802 85.8373 653.254 84.7546 657.314 84.0102L673.859 80.8635V76.8032C673.859 73.758 672.878 71.5925 670.916 70.3068C668.953 68.9533 666.077 68.2766 662.288 68.2766C658.566 68.2766 655.419 69.021 652.847 70.5098C650.276 71.9985 648.889 74.57 648.686 78.2243H640.159C640.362 72.2692 642.528 67.8706 646.656 65.0284C650.851 62.1862 656.062 60.7651 662.288 60.7651C668.919 60.7651 673.893 62.1185 677.209 64.8254C680.525 67.4646 682.183 71.1865 682.183 75.9911V114.767H674.265V108.169C672.1 110.943 669.596 112.94 666.754 114.158C663.912 115.376 660.799 115.985 657.415 115.985ZM657.821 108.473C660.528 108.473 663.1 107.966 665.536 106.951C667.972 105.868 669.968 104.244 671.525 102.078C673.081 99.8453 673.859 97.1046 673.859 93.8564V88.0705L658.532 91.2172C654.607 92.0293 651.731 93.0443 649.904 94.2624C648.077 95.4805 647.163 97.4768 647.163 100.251C647.163 102.823 648.043 104.853 649.802 106.342C651.562 107.763 654.235 108.473 657.821 108.473ZM708.851 63.2013C711.828 61.5771 715.313 60.7651 719.306 60.7651C724.449 60.7651 728.848 61.9493 732.502 64.3178C736.224 66.6863 739.032 69.9684 740.927 74.164C742.89 78.292 743.871 83.029 743.871 88.375C743.871 93.721 742.89 98.4919 740.927 102.688C739.032 106.815 736.224 110.064 732.502 112.432C728.848 114.801 724.449 115.985 719.306 115.985C715.449 115.985 712.031 115.241 709.054 113.752C706.144 112.195 703.742 110.03 701.847 107.255V135.068H693.32V61.9832H701.441V70.1037C703.403 67.1262 705.873 64.8254 708.851 63.2013ZM727.427 71.0173C724.99 69.3255 721.945 68.4796 718.291 68.4796C714.637 68.4796 711.558 69.3255 709.054 71.0173C706.618 72.7091 704.757 75.0437 703.471 78.0213C702.253 80.9988 701.644 84.4501 701.644 88.375C701.644 92.2999 702.253 95.7512 703.471 98.7287C704.757 101.706 706.618 104.041 709.054 105.733C711.558 107.425 714.637 108.27 718.291 108.27C721.945 108.27 724.99 107.425 727.427 105.733C729.93 104.041 731.791 101.706 733.009 98.7287C734.295 95.7512 734.938 92.2999 734.938 88.375C734.938 84.4501 734.295 80.9988 733.009 78.0213C731.791 75.0437 729.93 72.7091 727.427 71.0173Z" fill="white"/>
</svg>